<?xml version="1.0" encoding="iso-8859-1"?>
<!-- Generator: Adobe Illustrator 19.0.0, SVG Export Plug-In . SVG Version: 6.00 Build 0)  -->
<svg version="1.1" id="Layer_1" xmlns="http://www.w3.org/2000/svg" xmlns:xlink="http://www.w3.org/1999/xlink" x="0px" y="0px"
	 viewBox="0 0 512 512" style="enable-background:new 0 0 512 512;" xml:space="preserve" fill="#FFF">
<g>
	<g>
		<path d="M341.641,98.432c-22.17-27.665-45.099-56.269-63.932-86.4C273.033,4.548,264.823,0,256,0s-17.033,4.548-21.709,12.032
			c-18.833,30.14-41.762,58.743-63.932,86.4C118.067,163.678,64,231.142,64,320c0,105.865,86.135,192,192,192s192-86.135,192-192
			C448,231.142,393.933,163.678,341.641,98.432z M256,486.4c-91.904,0-166.4-74.496-166.4-166.4C89.6,204.8,192,128,256,25.6
			C320,128,422.4,204.8,422.4,320C422.4,411.904,347.904,486.4,256,486.4z"/>
	</g>
</g>
<g>
	<g>
		<path d="M384,309.564c-7.074,0-12.8,5.726-12.8,12.8c0,63.522-51.678,115.2-115.2,115.2c-7.074,0-12.8,5.726-12.8,12.8
			c0,7.074,5.726,12.8,12.8,12.8c77.628,0,140.8-63.172,140.8-140.8C396.8,315.29,391.074,309.564,384,309.564z"/>
	</g>
</g>
<g>
</g>
<g>
</g>
<g>
</g>
<g>
</g>
<g>
</g>
<g>
</g>
<g>
</g>
<g>
</g>
<g>
</g>
<g>
</g>
<g>
</g>
<g>
</g>
<g>
</g>
<g>
</g>
<g>
</g>
</svg>
